<svg width="48" height="48" viewBox="0 0 48 48" fill="none" xmlns="http://www.w3.org/2000/svg">
<path fill-rule="evenodd" clip-rule="evenodd" d="M5.65495 1.53344C6.17987 1.00931 6.81019 0.602715 7.50414 0.340611C8.19808 0.0785057 8.93981 -0.0331273 9.68017 0.0131093C10.4205 0.059346 11.1426 0.262396 11.7985 0.608805C12.4545 0.955213 13.0293 1.43707 13.4849 2.02244L18.8699 8.94044C19.8569 10.2094 20.2049 11.8624 19.8149 13.4224L18.1739 19.9924C18.0891 20.3327 18.0937 20.6892 18.1873 21.0272C18.2808 21.3652 18.4602 21.6732 18.7079 21.9214L26.0789 29.2924C26.3275 29.5407 26.636 29.7204 26.9746 29.8139C27.3132 29.9075 27.6702 29.9118 28.0109 29.8264L34.5779 28.1854C35.3478 27.993 36.1513 27.978 36.9278 28.1417C37.7043 28.3054 38.4334 28.6435 39.06 29.1304L45.978 34.5124C48.465 36.4474 48.693 40.1224 46.4669 42.3454L43.3649 45.4474C41.1449 47.6674 37.827 48.6424 34.7339 47.5534C26.8175 44.768 19.6298 40.236 13.7039 34.2934C7.76181 28.3685 3.22977 21.1818 0.443948 13.2664C-0.642052 10.1764 0.332948 6.85544 2.55295 4.63544L5.65495 1.53344ZM37.4999 3.00044C37.8978 3.00044 38.2793 3.15848 38.5606 3.43978C38.8419 3.72108 38.9999 4.10262 38.9999 4.50044V9.00044H43.4999C43.8978 9.00044 44.2793 9.15848 44.5606 9.43978C44.8419 9.72109 44.9999 10.1026 44.9999 10.5004C44.9999 10.8983 44.8419 11.2798 44.5606 11.5611C44.2793 11.8424 43.8978 12.0004 43.4999 12.0004H38.9999V16.5004C38.9999 16.8983 38.8419 17.2798 38.5606 17.5611C38.2793 17.8424 37.8978 18.0004 37.4999 18.0004C37.1021 18.0004 36.7206 17.8424 36.4393 17.5611C36.158 17.2798 35.9999 16.8983 35.9999 16.5004V12.0004H31.4999C31.1021 12.0004 30.7206 11.8424 30.4393 11.5611C30.158 11.2798 29.9999 10.8983 29.9999 10.5004C29.9999 10.1026 30.158 9.72109 30.4393 9.43978C30.7206 9.15848 31.1021 9.00044 31.4999 9.00044H35.9999V4.50044C35.9999 4.10262 36.158 3.72108 36.4393 3.43978C36.7206 3.15848 37.1021 3.00044 37.4999 3.00044Z" fill="white"/>
</svg>
